<mxfile host="app.diagrams.net" agent="Mozilla/5.0 (Windows NT 10.0; Win64; x64) AppleWebKit/537.36 (KHTML, like Gecko) Chrome/134.0.0.0 Safari/537.36" version="26.0.16">
  <diagram name="Page-1" id="ECbBFmetKhTGnj-cMGHT">
    <mxGraphModel dx="1393" dy="688" grid="1" gridSize="10" guides="1" tooltips="1" connect="1" arrows="1" fold="1" page="1" pageScale="1" pageWidth="850" pageHeight="1100" math="0" shadow="0">
      <root>
        <mxCell id="0" />
        <mxCell id="1" parent="0" />
        <mxCell id="Gq1O3nBwWOJLRT3mH5RI-69" value="" style="rounded=0;whiteSpace=wrap;html=1;" vertex="1" parent="1">
          <mxGeometry x="290" y="40" width="1140" height="899" as="geometry" />
        </mxCell>
        <mxCell id="Gq1O3nBwWOJLRT3mH5RI-9" value="" style="edgeStyle=orthogonalEdgeStyle;rounded=0;orthogonalLoop=1;jettySize=auto;html=1;" edge="1" parent="1" source="Gq1O3nBwWOJLRT3mH5RI-2" target="Gq1O3nBwWOJLRT3mH5RI-3">
          <mxGeometry relative="1" as="geometry" />
        </mxCell>
        <mxCell id="Gq1O3nBwWOJLRT3mH5RI-2" value="&lt;font style=&quot;color: rgb(255, 255, 255);&quot;&gt;Kresus&lt;br&gt;4337&lt;br&gt;Factory&lt;/font&gt;" style="rounded=1;whiteSpace=wrap;html=1;fillColor=light-dark(#000099, #ededed);strokeColor=none;shadow=1;" vertex="1" parent="1">
          <mxGeometry x="965" y="221" width="120" height="60" as="geometry" />
        </mxCell>
        <mxCell id="Gq1O3nBwWOJLRT3mH5RI-8" style="edgeStyle=orthogonalEdgeStyle;rounded=0;orthogonalLoop=1;jettySize=auto;html=1;" edge="1" parent="1" source="Gq1O3nBwWOJLRT3mH5RI-3" target="Gq1O3nBwWOJLRT3mH5RI-6">
          <mxGeometry relative="1" as="geometry" />
        </mxCell>
        <mxCell id="Gq1O3nBwWOJLRT3mH5RI-19" value="Byte Code" style="edgeLabel;html=1;align=center;verticalAlign=middle;resizable=0;points=[];" vertex="1" connectable="0" parent="Gq1O3nBwWOJLRT3mH5RI-8">
          <mxGeometry x="-0.0568" y="-3" relative="1" as="geometry">
            <mxPoint y="3" as="offset" />
          </mxGeometry>
        </mxCell>
        <mxCell id="Gq1O3nBwWOJLRT3mH5RI-3" value="&lt;font style=&quot;color: rgb(255, 255, 255);&quot;&gt;Wallet Implementation&lt;br&gt;Contract&lt;/font&gt;" style="whiteSpace=wrap;html=1;aspect=fixed;fillColor=light-dark(#000099, #ededed);gradientColor=none;strokeColor=none;shadow=1;" vertex="1" parent="1">
          <mxGeometry x="975" y="311" width="100" height="100" as="geometry" />
        </mxCell>
        <mxCell id="Gq1O3nBwWOJLRT3mH5RI-7" value="" style="group;strokeColor=none;" vertex="1" connectable="0" parent="1">
          <mxGeometry x="755" y="291" width="120" height="120" as="geometry" />
        </mxCell>
        <mxCell id="Gq1O3nBwWOJLRT3mH5RI-4" value="Wallet Proxy" style="whiteSpace=wrap;html=1;aspect=fixed;" vertex="1" parent="Gq1O3nBwWOJLRT3mH5RI-7">
          <mxGeometry width="100" height="100" as="geometry" />
        </mxCell>
        <mxCell id="Gq1O3nBwWOJLRT3mH5RI-5" value="Wallet Proxy" style="whiteSpace=wrap;html=1;aspect=fixed;" vertex="1" parent="Gq1O3nBwWOJLRT3mH5RI-7">
          <mxGeometry x="10" y="10" width="100" height="100" as="geometry" />
        </mxCell>
        <mxCell id="Gq1O3nBwWOJLRT3mH5RI-6" value="Smart Contract&lt;br&gt;Wallet Proxy" style="whiteSpace=wrap;html=1;aspect=fixed;fillColor=#000099;fontColor=#ffffff;strokeColor=none;shadow=1;" vertex="1" parent="Gq1O3nBwWOJLRT3mH5RI-7">
          <mxGeometry x="20" y="20" width="100" height="100" as="geometry" />
        </mxCell>
        <mxCell id="Gq1O3nBwWOJLRT3mH5RI-20" value="" style="edgeStyle=orthogonalEdgeStyle;rounded=0;orthogonalLoop=1;jettySize=auto;html=1;" edge="1" parent="1" source="Gq1O3nBwWOJLRT3mH5RI-10" target="Gq1O3nBwWOJLRT3mH5RI-6">
          <mxGeometry relative="1" as="geometry" />
        </mxCell>
        <mxCell id="Gq1O3nBwWOJLRT3mH5RI-26" style="edgeStyle=orthogonalEdgeStyle;rounded=0;orthogonalLoop=1;jettySize=auto;html=1;entryX=0.5;entryY=0;entryDx=0;entryDy=0;" edge="1" parent="1" source="Gq1O3nBwWOJLRT3mH5RI-10" target="Gq1O3nBwWOJLRT3mH5RI-15">
          <mxGeometry relative="1" as="geometry">
            <Array as="points">
              <mxPoint x="625" y="451" />
              <mxPoint x="825" y="451" />
            </Array>
          </mxGeometry>
        </mxCell>
        <mxCell id="Gq1O3nBwWOJLRT3mH5RI-10" value="Ownership" style="rounded=1;whiteSpace=wrap;html=1;gradientColor=none;fillColor=#000000;fontColor=#FFFFFF;shadow=1;strokeColor=none;" vertex="1" parent="1">
          <mxGeometry x="555" y="341" width="140" height="40" as="geometry" />
        </mxCell>
        <mxCell id="Gq1O3nBwWOJLRT3mH5RI-35" value="" style="edgeStyle=orthogonalEdgeStyle;rounded=0;orthogonalLoop=1;jettySize=auto;html=1;" edge="1" parent="1" source="Gq1O3nBwWOJLRT3mH5RI-11" target="Gq1O3nBwWOJLRT3mH5RI-32">
          <mxGeometry relative="1" as="geometry" />
        </mxCell>
        <mxCell id="Gq1O3nBwWOJLRT3mH5RI-42" value="" style="edgeStyle=orthogonalEdgeStyle;rounded=0;orthogonalLoop=1;jettySize=auto;html=1;shape=link;" edge="1" parent="1" source="Gq1O3nBwWOJLRT3mH5RI-11" target="Gq1O3nBwWOJLRT3mH5RI-14">
          <mxGeometry relative="1" as="geometry" />
        </mxCell>
        <mxCell id="Gq1O3nBwWOJLRT3mH5RI-11" value="Execute" style="rounded=1;whiteSpace=wrap;html=1;gradientColor=none;fillColor=#000000;fontColor=#FFFFFF;shadow=1;strokeColor=none;" vertex="1" parent="1">
          <mxGeometry x="955" y="471" width="140" height="40" as="geometry" />
        </mxCell>
        <mxCell id="Gq1O3nBwWOJLRT3mH5RI-12" value="Transfer Ownership&lt;div&gt;Trustee&lt;/div&gt;" style="rounded=1;whiteSpace=wrap;html=1;gradientColor=none;fillColor=#000000;fontColor=#FFFFFF;shadow=1;strokeColor=none;" vertex="1" parent="1">
          <mxGeometry x="1155" y="741" width="140" height="40" as="geometry" />
        </mxCell>
        <mxCell id="Gq1O3nBwWOJLRT3mH5RI-46" style="edgeStyle=orthogonalEdgeStyle;rounded=0;orthogonalLoop=1;jettySize=auto;html=1;entryX=0.5;entryY=0;entryDx=0;entryDy=0;" edge="1" parent="1" source="Gq1O3nBwWOJLRT3mH5RI-13" target="Gq1O3nBwWOJLRT3mH5RI-12">
          <mxGeometry relative="1" as="geometry" />
        </mxCell>
        <mxCell id="Gq1O3nBwWOJLRT3mH5RI-47" value="Trustee Address" style="edgeLabel;html=1;align=center;verticalAlign=middle;resizable=0;points=[];" vertex="1" connectable="0" parent="Gq1O3nBwWOJLRT3mH5RI-46">
          <mxGeometry x="-0.14" y="2" relative="1" as="geometry">
            <mxPoint as="offset" />
          </mxGeometry>
        </mxCell>
        <mxCell id="Gq1O3nBwWOJLRT3mH5RI-13" value="Trustee setup" style="rounded=1;whiteSpace=wrap;html=1;gradientColor=none;fillColor=#000000;fontColor=#FFFFFF;shadow=1;strokeColor=none;" vertex="1" parent="1">
          <mxGeometry x="1155" y="611" width="140" height="40" as="geometry" />
        </mxCell>
        <mxCell id="Gq1O3nBwWOJLRT3mH5RI-36" value="" style="edgeStyle=orthogonalEdgeStyle;rounded=0;orthogonalLoop=1;jettySize=auto;html=1;" edge="1" parent="1" source="Gq1O3nBwWOJLRT3mH5RI-14" target="Gq1O3nBwWOJLRT3mH5RI-32">
          <mxGeometry relative="1" as="geometry" />
        </mxCell>
        <mxCell id="Gq1O3nBwWOJLRT3mH5RI-41" style="edgeStyle=orthogonalEdgeStyle;rounded=0;orthogonalLoop=1;jettySize=auto;html=1;entryX=0;entryY=0.5;entryDx=0;entryDy=0;" edge="1" parent="1" source="Gq1O3nBwWOJLRT3mH5RI-14" target="Gq1O3nBwWOJLRT3mH5RI-13">
          <mxGeometry relative="1" as="geometry">
            <Array as="points">
              <mxPoint x="1025" y="631" />
            </Array>
          </mxGeometry>
        </mxCell>
        <mxCell id="Gq1O3nBwWOJLRT3mH5RI-43" value="Trustee address" style="edgeLabel;html=1;align=center;verticalAlign=middle;resizable=0;points=[];" vertex="1" connectable="0" parent="Gq1O3nBwWOJLRT3mH5RI-41">
          <mxGeometry x="0.0202" y="-2" relative="1" as="geometry">
            <mxPoint x="23" as="offset" />
          </mxGeometry>
        </mxCell>
        <mxCell id="Gq1O3nBwWOJLRT3mH5RI-14" value="Execute Batch" style="rounded=1;whiteSpace=wrap;html=1;gradientColor=none;fillColor=#000000;fontColor=#FFFFFF;shadow=1;strokeColor=none;" vertex="1" parent="1">
          <mxGeometry x="955" y="531" width="140" height="40" as="geometry" />
        </mxCell>
        <mxCell id="Gq1O3nBwWOJLRT3mH5RI-30" value="" style="edgeStyle=orthogonalEdgeStyle;rounded=0;orthogonalLoop=1;jettySize=auto;html=1;" edge="1" parent="1" source="Gq1O3nBwWOJLRT3mH5RI-15" target="Gq1O3nBwWOJLRT3mH5RI-11">
          <mxGeometry relative="1" as="geometry" />
        </mxCell>
        <mxCell id="Gq1O3nBwWOJLRT3mH5RI-31" style="edgeStyle=orthogonalEdgeStyle;rounded=0;orthogonalLoop=1;jettySize=auto;html=1;entryX=0;entryY=0.5;entryDx=0;entryDy=0;" edge="1" parent="1" source="Gq1O3nBwWOJLRT3mH5RI-15" target="Gq1O3nBwWOJLRT3mH5RI-14">
          <mxGeometry relative="1" as="geometry" />
        </mxCell>
        <mxCell id="Gq1O3nBwWOJLRT3mH5RI-15" value="Is Valid Signature" style="rounded=1;whiteSpace=wrap;html=1;gradientColor=none;fillColor=#000000;fontColor=#FFFFFF;shadow=1;strokeColor=none;" vertex="1" parent="1">
          <mxGeometry x="755" y="501" width="140" height="40" as="geometry" />
        </mxCell>
        <mxCell id="Gq1O3nBwWOJLRT3mH5RI-17" style="edgeStyle=orthogonalEdgeStyle;rounded=0;orthogonalLoop=1;jettySize=auto;html=1;" edge="1" parent="1" source="Gq1O3nBwWOJLRT3mH5RI-2" target="Gq1O3nBwWOJLRT3mH5RI-6">
          <mxGeometry relative="1" as="geometry" />
        </mxCell>
        <mxCell id="Gq1O3nBwWOJLRT3mH5RI-18" value="Create2" style="edgeLabel;html=1;align=center;verticalAlign=middle;resizable=0;points=[];" vertex="1" connectable="0" parent="Gq1O3nBwWOJLRT3mH5RI-17">
          <mxGeometry x="-0.0384" y="1" relative="1" as="geometry">
            <mxPoint x="26" y="-1" as="offset" />
          </mxGeometry>
        </mxCell>
        <mxCell id="Gq1O3nBwWOJLRT3mH5RI-22" style="edgeStyle=orthogonalEdgeStyle;rounded=0;orthogonalLoop=1;jettySize=auto;html=1;" edge="1" parent="1" source="Gq1O3nBwWOJLRT3mH5RI-21" target="Gq1O3nBwWOJLRT3mH5RI-10">
          <mxGeometry relative="1" as="geometry" />
        </mxCell>
        <mxCell id="Gq1O3nBwWOJLRT3mH5RI-24" style="edgeStyle=orthogonalEdgeStyle;rounded=0;orthogonalLoop=1;jettySize=auto;html=1;entryX=0;entryY=0.5;entryDx=0;entryDy=0;" edge="1" parent="1" target="Gq1O3nBwWOJLRT3mH5RI-23">
          <mxGeometry relative="1" as="geometry">
            <mxPoint x="445" y="431" as="sourcePoint" />
            <Array as="points">
              <mxPoint x="445" y="521" />
            </Array>
          </mxGeometry>
        </mxCell>
        <mxCell id="Gq1O3nBwWOJLRT3mH5RI-21" value="Magic&lt;div&gt;Encrypted Keys&lt;/div&gt;" style="shape=mxgraph.cisco.misc.keys;html=1;pointerEvents=1;dashed=0;fillColor=#036897;strokeColor=#ffffff;strokeWidth=2;verticalLabelPosition=bottom;verticalAlign=top;align=center;outlineConnect=0;" vertex="1" parent="1">
          <mxGeometry x="425" y="336.5" width="40" height="49" as="geometry" />
        </mxCell>
        <mxCell id="Gq1O3nBwWOJLRT3mH5RI-27" value="" style="edgeStyle=orthogonalEdgeStyle;rounded=0;orthogonalLoop=1;jettySize=auto;html=1;" edge="1" parent="1" source="Gq1O3nBwWOJLRT3mH5RI-23" target="Gq1O3nBwWOJLRT3mH5RI-15">
          <mxGeometry relative="1" as="geometry" />
        </mxCell>
        <mxCell id="Gq1O3nBwWOJLRT3mH5RI-23" value="1271 Signature" style="rounded=1;whiteSpace=wrap;html=1;gradientColor=none;fillColor=#000000;fontColor=#FFFFFF;shadow=1;strokeColor=none;" vertex="1" parent="1">
          <mxGeometry x="555" y="501" width="140" height="40" as="geometry" />
        </mxCell>
        <mxCell id="Gq1O3nBwWOJLRT3mH5RI-25" value="" style="edgeStyle=orthogonalEdgeStyle;rounded=0;orthogonalLoop=1;jettySize=auto;html=1;" edge="1" parent="1" source="Gq1O3nBwWOJLRT3mH5RI-6" target="Gq1O3nBwWOJLRT3mH5RI-15">
          <mxGeometry relative="1" as="geometry" />
        </mxCell>
        <mxCell id="Gq1O3nBwWOJLRT3mH5RI-28" value="Functions" style="edgeLabel;html=1;align=center;verticalAlign=middle;resizable=0;points=[];" vertex="1" connectable="0" parent="Gq1O3nBwWOJLRT3mH5RI-25">
          <mxGeometry x="-0.5407" relative="1" as="geometry">
            <mxPoint as="offset" />
          </mxGeometry>
        </mxCell>
        <mxCell id="Gq1O3nBwWOJLRT3mH5RI-37" style="edgeStyle=orthogonalEdgeStyle;rounded=0;orthogonalLoop=1;jettySize=auto;html=1;entryX=1;entryY=0.5;entryDx=0;entryDy=0;" edge="1" parent="1" source="Gq1O3nBwWOJLRT3mH5RI-32" target="Gq1O3nBwWOJLRT3mH5RI-13">
          <mxGeometry relative="1" as="geometry">
            <Array as="points">
              <mxPoint x="1335" y="521" />
              <mxPoint x="1335" y="631" />
            </Array>
          </mxGeometry>
        </mxCell>
        <mxCell id="Gq1O3nBwWOJLRT3mH5RI-38" style="edgeStyle=orthogonalEdgeStyle;rounded=0;orthogonalLoop=1;jettySize=auto;html=1;entryX=1;entryY=0.5;entryDx=0;entryDy=0;" edge="1" parent="1" source="Gq1O3nBwWOJLRT3mH5RI-32" target="Gq1O3nBwWOJLRT3mH5RI-12">
          <mxGeometry relative="1" as="geometry">
            <Array as="points">
              <mxPoint x="1335" y="521" />
              <mxPoint x="1335" y="761" />
            </Array>
          </mxGeometry>
        </mxCell>
        <mxCell id="Gq1O3nBwWOJLRT3mH5RI-40" style="edgeStyle=orthogonalEdgeStyle;rounded=0;orthogonalLoop=1;jettySize=auto;html=1;entryX=1;entryY=0.5;entryDx=0;entryDy=0;" edge="1" parent="1" source="Gq1O3nBwWOJLRT3mH5RI-32" target="Gq1O3nBwWOJLRT3mH5RI-39">
          <mxGeometry relative="1" as="geometry">
            <Array as="points">
              <mxPoint x="1335" y="521" />
              <mxPoint x="1335" y="421" />
            </Array>
          </mxGeometry>
        </mxCell>
        <mxCell id="Gq1O3nBwWOJLRT3mH5RI-32" value="External / Internal Contract Calls" style="rounded=1;whiteSpace=wrap;html=1;gradientColor=none;fillColor=#000000;fontColor=#FFFFFF;shadow=1;strokeColor=none;" vertex="1" parent="1">
          <mxGeometry x="1155" y="471" width="140" height="100" as="geometry" />
        </mxCell>
        <mxCell id="Gq1O3nBwWOJLRT3mH5RI-39" value="Third Party Contracts" style="rounded=1;whiteSpace=wrap;html=1;fillColor=#bac8d3;strokeColor=none;shadow=1;" vertex="1" parent="1">
          <mxGeometry x="1155" y="401" width="140" height="40" as="geometry" />
        </mxCell>
        <mxCell id="Gq1O3nBwWOJLRT3mH5RI-49" style="edgeStyle=orthogonalEdgeStyle;rounded=0;orthogonalLoop=1;jettySize=auto;html=1;" edge="1" parent="1" source="Gq1O3nBwWOJLRT3mH5RI-44" target="Gq1O3nBwWOJLRT3mH5RI-48">
          <mxGeometry relative="1" as="geometry" />
        </mxCell>
        <mxCell id="Gq1O3nBwWOJLRT3mH5RI-65" value="Kresus Signature" style="edgeLabel;html=1;align=center;verticalAlign=middle;resizable=0;points=[];" vertex="1" connectable="0" parent="Gq1O3nBwWOJLRT3mH5RI-49">
          <mxGeometry x="0.2017" y="-1" relative="1" as="geometry">
            <mxPoint as="offset" />
          </mxGeometry>
        </mxCell>
        <mxCell id="Gq1O3nBwWOJLRT3mH5RI-64" style="edgeStyle=orthogonalEdgeStyle;rounded=0;orthogonalLoop=1;jettySize=auto;html=1;" edge="1" parent="1" source="Gq1O3nBwWOJLRT3mH5RI-44" target="Gq1O3nBwWOJLRT3mH5RI-61">
          <mxGeometry relative="1" as="geometry" />
        </mxCell>
        <mxCell id="Gq1O3nBwWOJLRT3mH5RI-67" value="Check Activity Status" style="edgeLabel;html=1;align=center;verticalAlign=middle;resizable=0;points=[];" vertex="1" connectable="0" parent="Gq1O3nBwWOJLRT3mH5RI-64">
          <mxGeometry x="0.7213" y="-1" relative="1" as="geometry">
            <mxPoint as="offset" />
          </mxGeometry>
        </mxCell>
        <mxCell id="Gq1O3nBwWOJLRT3mH5RI-44" value="Kresus Verifier&amp;nbsp;&lt;div&gt;Keys&lt;div&gt;&lt;br&gt;&lt;/div&gt;&lt;/div&gt;" style="shape=mxgraph.cisco.misc.keys;html=1;pointerEvents=1;dashed=0;fillColor=#036897;strokeColor=#ffffff;strokeWidth=2;verticalLabelPosition=bottom;verticalAlign=top;align=center;outlineConnect=0;" vertex="1" parent="1">
          <mxGeometry x="425" y="641" width="40" height="49" as="geometry" />
        </mxCell>
        <mxCell id="Gq1O3nBwWOJLRT3mH5RI-50" style="edgeStyle=orthogonalEdgeStyle;rounded=0;orthogonalLoop=1;jettySize=auto;html=1;" edge="1" parent="1" source="Gq1O3nBwWOJLRT3mH5RI-45" target="Gq1O3nBwWOJLRT3mH5RI-48">
          <mxGeometry relative="1" as="geometry" />
        </mxCell>
        <mxCell id="Gq1O3nBwWOJLRT3mH5RI-63" style="edgeStyle=orthogonalEdgeStyle;rounded=0;orthogonalLoop=1;jettySize=auto;html=1;" edge="1" parent="1" source="Gq1O3nBwWOJLRT3mH5RI-45" target="Gq1O3nBwWOJLRT3mH5RI-61">
          <mxGeometry relative="1" as="geometry" />
        </mxCell>
        <mxCell id="Gq1O3nBwWOJLRT3mH5RI-45" value="&lt;div&gt;&lt;div&gt;Trustee Keys&lt;/div&gt;&lt;/div&gt;" style="shape=mxgraph.cisco.misc.keys;html=1;pointerEvents=1;dashed=0;fillColor=#036897;strokeColor=#ffffff;strokeWidth=2;verticalLabelPosition=bottom;verticalAlign=top;align=center;outlineConnect=0;" vertex="1" parent="1">
          <mxGeometry x="425" y="831" width="40" height="49" as="geometry" />
        </mxCell>
        <mxCell id="Gq1O3nBwWOJLRT3mH5RI-56" value="" style="edgeStyle=orthogonalEdgeStyle;rounded=0;orthogonalLoop=1;jettySize=auto;html=1;" edge="1" parent="1" source="Gq1O3nBwWOJLRT3mH5RI-48" target="Gq1O3nBwWOJLRT3mH5RI-55">
          <mxGeometry relative="1" as="geometry" />
        </mxCell>
        <mxCell id="Gq1O3nBwWOJLRT3mH5RI-48" value="Multisig&lt;br&gt;2/2&lt;br&gt;Threshold" style="rounded=1;whiteSpace=wrap;html=1;fillColor=#000000;fontColor=#FFFFFF;shadow=1;strokeColor=none;" vertex="1" parent="1">
          <mxGeometry x="755" y="731" width="140" height="60" as="geometry" />
        </mxCell>
        <mxCell id="Gq1O3nBwWOJLRT3mH5RI-57" value="" style="edgeStyle=orthogonalEdgeStyle;rounded=0;orthogonalLoop=1;jettySize=auto;html=1;" edge="1" parent="1" source="Gq1O3nBwWOJLRT3mH5RI-55" target="Gq1O3nBwWOJLRT3mH5RI-12">
          <mxGeometry relative="1" as="geometry" />
        </mxCell>
        <mxCell id="Gq1O3nBwWOJLRT3mH5RI-58" style="edgeStyle=orthogonalEdgeStyle;rounded=0;orthogonalLoop=1;jettySize=auto;html=1;startArrow=classic;startFill=1;endArrow=none;" edge="1" parent="1" source="Gq1O3nBwWOJLRT3mH5RI-55">
          <mxGeometry relative="1" as="geometry">
            <mxPoint x="1185" y="691" as="targetPoint" />
            <Array as="points">
              <mxPoint x="1025" y="691" />
            </Array>
          </mxGeometry>
        </mxCell>
        <mxCell id="Gq1O3nBwWOJLRT3mH5RI-59" value="Message check" style="edgeLabel;html=1;align=center;verticalAlign=middle;resizable=0;points=[];" vertex="1" connectable="0" parent="Gq1O3nBwWOJLRT3mH5RI-58">
          <mxGeometry x="-0.0046" y="-1" relative="1" as="geometry">
            <mxPoint as="offset" />
          </mxGeometry>
        </mxCell>
        <mxCell id="Gq1O3nBwWOJLRT3mH5RI-55" value="isValid&lt;br&gt;signature" style="rhombus;whiteSpace=wrap;html=1;gradientColor=none;fillColor=#000000;fontColor=#FFFFFF;shadow=1;strokeColor=none;" vertex="1" parent="1">
          <mxGeometry x="985" y="721" width="80" height="80" as="geometry" />
        </mxCell>
        <mxCell id="Gq1O3nBwWOJLRT3mH5RI-62" value="" style="edgeStyle=orthogonalEdgeStyle;rounded=0;orthogonalLoop=1;jettySize=auto;html=1;" edge="1" parent="1" source="Gq1O3nBwWOJLRT3mH5RI-61" target="Gq1O3nBwWOJLRT3mH5RI-48">
          <mxGeometry relative="1" as="geometry" />
        </mxCell>
        <mxCell id="Gq1O3nBwWOJLRT3mH5RI-61" value="Trustee&amp;nbsp;Verifier&lt;br&gt;Service" style="rounded=1;whiteSpace=wrap;html=1;fillColor=#000099;strokeColor=none;labelBorderColor=none;fontColor=#FFFFFF;shadow=1;" vertex="1" parent="1">
          <mxGeometry x="555" y="711" width="140" height="100" as="geometry" />
        </mxCell>
        <mxCell id="Gq1O3nBwWOJLRT3mH5RI-66" value="Trustee Signature" style="edgeLabel;html=1;align=center;verticalAlign=middle;resizable=0;points=[];" vertex="1" connectable="0" parent="1">
          <mxGeometry x="725.0045454545455" y="855.4954545454545" as="geometry" />
        </mxCell>
        <mxCell id="Gq1O3nBwWOJLRT3mH5RI-68" value="Initiate Transfer Ownership Flow" style="edgeLabel;html=1;align=center;verticalAlign=middle;resizable=0;points=[];" vertex="1" connectable="0" parent="1">
          <mxGeometry x="625.000303030303" y="831.0042424242425" as="geometry" />
        </mxCell>
        <mxCell id="Gq1O3nBwWOJLRT3mH5RI-70" value="&lt;h1 style=&quot;margin-top: 0px;&quot;&gt;&lt;font style=&quot;font-size: 29px;&quot;&gt;Kresus Inheritance Flow&lt;/font&gt;&lt;/h1&gt;" style="text;html=1;whiteSpace=wrap;overflow=hidden;rounded=0;" vertex="1" parent="1">
          <mxGeometry x="687.5" y="70" width="345" height="70" as="geometry" />
        </mxCell>
      </root>
    </mxGraphModel>
  </diagram>
</mxfile>
